<svg xmlns="http://www.w3.org/2000/svg" viewBox="0 0 100 100" width="100" height="100">
  <circle cx="50" cy="50" r="48" fill="#e0f2fe" stroke="#38bdf8" stroke-width="4"/>
  <!-- Orejas de gato -->
  <polygon points="20,20 38,40 20,44" fill="#38bdf8"/>
  <polygon points="80,20 62,40 80,44" fill="#38bdf8"/>
  <polygon points="24,26 34,38 23,41" fill="#f472b6"/>
  <polygon points="76,26 66,38 77,41" fill="#f472b6"/>
  <!-- Cabeza de gato -->
  <circle cx="50" cy="54" r="32" fill="#bae6fd"/>
  <!-- Ojos de gato -->
  <ellipse cx="36" cy="50" rx="5" ry="7" fill="#0f172a"/>
  <ellipse cx="64" cy="50" rx="5" ry="7" fill="#0f172a"/>
  <circle cx="37" cy="48" r="2" fill="#ffffff"/>
  <circle cx="65" cy="48" r="2" fill="#ffffff"/>
  <!-- Nariz y bigotes -->
  <polygon points="50,58 47,55 53,55" fill="#ec4899"/>
  <path d="M 47,60 Q 50,64 53,60" stroke="#0f172a" stroke-width="2" fill="none"/>
  <line x1="22" y1="52" x2="32" y2="54" stroke="#0f172a" stroke-width="2"/>
  <line x1="22" y1="58" x2="32" y2="58" stroke="#0f172a" stroke-width="2"/>
  <line x1="78" y1="52" x2="68" y2="54" stroke="#0f172a" stroke-width="2"/>
  <line x1="78" y1="58" x2="68" y2="58" stroke="#0f172a" stroke-width="2"/>
  <!-- Casco espacial -->
  <circle cx="50" cy="50" r="38" fill="none" stroke="#e0f2fe" stroke-width="4" opacity="0.8"/>
  <path d="M 22,35 A 38 38 0 0 1 78 35" fill="none" stroke="#38bdf8" stroke-width="3"/>
</svg>
